<svg width="139" height="90" viewBox="0 0 139 90" fill="none" xmlns="http://www.w3.org/2000/svg">
<mask id="path-1-outside-1_99_2" maskUnits="userSpaceOnUse" x="62" y="46" width="75" height="27" fill="black">
<rect fill="white" x="62" y="46" width="75" height="27"/>
<path d="M75.024 58.936H82.928V70.136C81.6907 70.5413 80.4427 70.84 79.184 71.032C77.9253 71.224 76.496 71.32 74.896 71.32C72.528 71.32 70.5333 70.8507 68.912 69.912C67.2907 68.952 66.0533 67.5973 65.2 65.848C64.368 64.0773 63.952 61.9867 63.952 59.576C63.952 57.1867 64.4213 55.1173 65.36 53.368C66.2987 51.6187 67.6427 50.264 69.392 49.304C71.1627 48.3227 73.296 47.832 75.792 47.832C77.072 47.832 78.2773 47.9493 79.408 48.184C80.56 48.4187 81.6267 48.7493 82.608 49.176L81.52 51.672C80.7093 51.3093 79.792 51 78.768 50.744C77.7653 50.488 76.72 50.36 75.632 50.36C73.8187 50.36 72.2613 50.7333 70.96 51.48C69.6587 52.2267 68.6667 53.2933 67.984 54.68C67.3013 56.0453 66.96 57.6773 66.96 59.576C66.96 61.3893 67.248 63 67.824 64.408C68.4213 65.7947 69.3493 66.8827 70.608 67.672C71.8667 68.44 73.52 68.824 75.568 68.824C76.2507 68.824 76.848 68.8027 77.36 68.76C77.8933 68.696 78.3733 68.6213 78.8 68.536C79.248 68.4507 79.664 68.3653 80.048 68.28V61.496H75.024V58.936ZM96.0013 53.528C96.3213 53.528 96.6626 53.5493 97.0253 53.592C97.4093 53.6133 97.7399 53.656 98.0173 53.72L97.6653 56.312C97.3879 56.248 97.0786 56.1947 96.7373 56.152C96.4173 56.1093 96.1079 56.088 95.8093 56.088C95.1479 56.088 94.5186 56.2267 93.9213 56.504C93.3239 56.7813 92.7906 57.176 92.3213 57.688C91.8519 58.1787 91.4786 58.776 91.2013 59.48C90.9453 60.184 90.8173 60.9733 90.8173 61.848V71H88.0013V53.848H90.3053L90.6253 56.984H90.7533C91.1159 56.344 91.5533 55.768 92.0653 55.256C92.5773 54.7227 93.1639 54.3067 93.8253 54.008C94.4866 53.688 95.2119 53.528 96.0013 53.528ZM115.556 53.848V71H113.252L112.836 68.728H112.708C112.345 69.3253 111.876 69.816 111.3 70.2C110.724 70.584 110.095 70.8613 109.412 71.032C108.729 71.224 108.015 71.32 107.268 71.32C105.903 71.32 104.751 71.1067 103.812 70.68C102.895 70.232 102.201 69.5493 101.732 68.632C101.263 67.7147 101.028 66.5307 101.028 65.08V53.848H103.876V64.888C103.876 66.2533 104.185 67.2773 104.804 67.96C105.423 68.6427 106.383 68.984 107.684 68.984C108.964 68.984 109.967 68.7493 110.692 68.28C111.439 67.7893 111.961 67.0853 112.26 66.168C112.58 65.2293 112.74 64.0987 112.74 62.776V53.848H115.556ZM129.257 53.528C131.305 53.528 132.852 54.0293 133.897 55.032C134.943 56.0133 135.465 57.6133 135.465 59.832V71H132.681V60.024C132.681 58.6373 132.372 57.6027 131.753 56.92C131.135 56.2373 130.164 55.896 128.841 55.896C126.943 55.896 125.631 56.4293 124.905 57.496C124.18 58.5627 123.817 60.0987 123.817 62.104V71H121.001V53.848H123.273L123.689 56.184H123.849C124.233 55.5867 124.703 55.096 125.257 54.712C125.833 54.3067 126.463 54.008 127.145 53.816C127.828 53.624 128.532 53.528 129.257 53.528Z"/>
</mask>
<path d="M75.024 58.936H82.928V70.136C81.6907 70.5413 80.4427 70.84 79.184 71.032C77.9253 71.224 76.496 71.32 74.896 71.32C72.528 71.32 70.5333 70.8507 68.912 69.912C67.2907 68.952 66.0533 67.5973 65.2 65.848C64.368 64.0773 63.952 61.9867 63.952 59.576C63.952 57.1867 64.4213 55.1173 65.36 53.368C66.2987 51.6187 67.6427 50.264 69.392 49.304C71.1627 48.3227 73.296 47.832 75.792 47.832C77.072 47.832 78.2773 47.9493 79.408 48.184C80.56 48.4187 81.6267 48.7493 82.608 49.176L81.52 51.672C80.7093 51.3093 79.792 51 78.768 50.744C77.7653 50.488 76.72 50.36 75.632 50.36C73.8187 50.36 72.2613 50.7333 70.96 51.48C69.6587 52.2267 68.6667 53.2933 67.984 54.68C67.3013 56.0453 66.96 57.6773 66.96 59.576C66.96 61.3893 67.248 63 67.824 64.408C68.4213 65.7947 69.3493 66.8827 70.608 67.672C71.8667 68.44 73.52 68.824 75.568 68.824C76.2507 68.824 76.848 68.8027 77.36 68.76C77.8933 68.696 78.3733 68.6213 78.8 68.536C79.248 68.4507 79.664 68.3653 80.048 68.28V61.496H75.024V58.936ZM96.0013 53.528C96.3213 53.528 96.6626 53.5493 97.0253 53.592C97.4093 53.6133 97.7399 53.656 98.0173 53.72L97.6653 56.312C97.3879 56.248 97.0786 56.1947 96.7373 56.152C96.4173 56.1093 96.1079 56.088 95.8093 56.088C95.1479 56.088 94.5186 56.2267 93.9213 56.504C93.3239 56.7813 92.7906 57.176 92.3213 57.688C91.8519 58.1787 91.4786 58.776 91.2013 59.48C90.9453 60.184 90.8173 60.9733 90.8173 61.848V71H88.0013V53.848H90.3053L90.6253 56.984H90.7533C91.1159 56.344 91.5533 55.768 92.0653 55.256C92.5773 54.7227 93.1639 54.3067 93.8253 54.008C94.4866 53.688 95.2119 53.528 96.0013 53.528ZM115.556 53.848V71H113.252L112.836 68.728H112.708C112.345 69.3253 111.876 69.816 111.3 70.2C110.724 70.584 110.095 70.8613 109.412 71.032C108.729 71.224 108.015 71.32 107.268 71.32C105.903 71.32 104.751 71.1067 103.812 70.68C102.895 70.232 102.201 69.5493 101.732 68.632C101.263 67.7147 101.028 66.5307 101.028 65.08V53.848H103.876V64.888C103.876 66.2533 104.185 67.2773 104.804 67.96C105.423 68.6427 106.383 68.984 107.684 68.984C108.964 68.984 109.967 68.7493 110.692 68.28C111.439 67.7893 111.961 67.0853 112.26 66.168C112.58 65.2293 112.74 64.0987 112.74 62.776V53.848H115.556ZM129.257 53.528C131.305 53.528 132.852 54.0293 133.897 55.032C134.943 56.0133 135.465 57.6133 135.465 59.832V71H132.681V60.024C132.681 58.6373 132.372 57.6027 131.753 56.92C131.135 56.2373 130.164 55.896 128.841 55.896C126.943 55.896 125.631 56.4293 124.905 57.496C124.18 58.5627 123.817 60.0987 123.817 62.104V71H121.001V53.848H123.273L123.689 56.184H123.849C124.233 55.5867 124.703 55.096 125.257 54.712C125.833 54.3067 126.463 54.008 127.145 53.816C127.828 53.624 128.532 53.528 129.257 53.528Z" fill="#032615"/>
<path d="M75.024 58.936V57.936H74.024V58.936H75.024ZM82.928 58.936H83.928V57.936H82.928V58.936ZM82.928 70.136L83.2393 71.0863L83.928 70.8607V70.136H82.928ZM79.184 71.032L79.0332 70.0434L79.0332 70.0434L79.184 71.032ZM68.912 69.912L68.4025 70.7725L68.411 70.7774L68.912 69.912ZM65.2 65.848L64.2949 66.2733L64.298 66.2799L64.3012 66.2864L65.2 65.848ZM65.36 53.368L66.2412 53.8408L66.2412 53.8408L65.36 53.368ZM69.392 49.304L69.8731 50.1807L69.8767 50.1787L69.392 49.304ZM79.408 48.184L79.2048 49.1631L79.2084 49.1639L79.408 48.184ZM82.608 49.176L83.5247 49.5756L83.9247 48.658L83.0067 48.2589L82.608 49.176ZM81.52 51.672L81.1116 52.5848L82.0333 52.9971L82.4367 52.0716L81.52 51.672ZM78.768 50.744L78.5206 51.7129L78.5255 51.7141L78.768 50.744ZM70.96 51.48L71.4577 52.3474L71.4577 52.3474L70.96 51.48ZM67.984 54.68L68.8784 55.1272L68.8812 55.1217L67.984 54.68ZM67.824 64.408L66.8985 64.7866L66.9019 64.7952L66.9056 64.8036L67.824 64.408ZM70.608 67.672L70.0767 68.5193L70.0871 68.5256L70.608 67.672ZM77.36 68.76L77.443 69.7565L77.4611 69.755L77.4791 69.7529L77.36 68.76ZM78.8 68.536L78.6129 67.5536L78.6039 67.5554L78.8 68.536ZM80.048 68.28L80.2649 69.2562L81.048 69.0822V68.28H80.048ZM80.048 61.496H81.048V60.496H80.048V61.496ZM75.024 61.496H74.024V62.496H75.024V61.496ZM75.024 59.936H82.928V57.936H75.024V59.936ZM81.928 58.936V70.136H83.928V58.936H81.928ZM82.6167 69.1857C81.4305 69.5743 80.2362 69.8599 79.0332 70.0434L79.3348 72.0206C80.6491 71.8201 81.9508 71.5084 83.2393 71.0863L82.6167 69.1857ZM79.0332 70.0434C77.8352 70.2262 76.4577 70.32 74.896 70.32V72.32C76.5343 72.32 78.0155 72.2218 79.3348 72.0206L79.0332 70.0434ZM74.896 70.32C72.6582 70.32 70.8469 69.8767 69.413 69.0466L68.411 70.7774C70.2198 71.8246 72.3978 72.32 74.896 72.32V70.32ZM69.4215 69.0515C67.9742 68.1946 66.8694 66.9893 66.0988 65.4096L64.3012 66.2864C65.2373 68.2053 66.6072 69.7094 68.4025 70.7725L69.4215 69.0515ZM66.1051 65.4227C65.3484 63.8123 64.952 61.873 64.952 59.576H62.952C62.952 62.1003 63.3876 64.3423 64.2949 66.2733L66.1051 65.4227ZM64.952 59.576C64.952 57.3183 65.3949 55.4179 66.2412 53.8408L64.4788 52.8952C63.4478 54.8167 62.952 57.0551 62.952 59.576H64.952ZM66.2412 53.8408C67.0879 52.2629 68.2925 51.0481 69.8731 50.1807L68.9109 48.4273C66.9929 49.4799 65.5095 50.9744 64.4788 52.8952L66.2412 53.8408ZM69.8767 50.1787C71.4683 49.2966 73.4265 48.832 75.792 48.832V46.832C73.1655 46.832 70.857 47.3487 68.9073 48.4293L69.8767 50.1787ZM75.792 48.832C77.011 48.832 78.1477 48.9437 79.2048 49.1631L79.6112 47.2049C78.4069 46.9549 77.133 46.832 75.792 46.832V48.832ZM79.2084 49.1639C80.2986 49.386 81.2979 49.6968 82.2093 50.0931L83.0067 48.2589C81.9555 47.8019 80.8214 47.4514 79.6076 47.2041L79.2084 49.1639ZM81.6913 48.7764L80.6033 51.2724L82.4367 52.0716L83.5247 49.5756L81.6913 48.7764ZM81.9284 50.7592C81.0553 50.3686 80.0811 50.0415 79.0105 49.7739L78.5255 51.7141C79.5029 51.9585 80.3633 52.25 81.1116 52.5848L81.9284 50.7592ZM79.0154 49.7751C77.9278 49.4974 76.7992 49.36 75.632 49.36V51.36C76.6408 51.36 77.6028 51.4786 78.5206 51.7129L79.0154 49.7751ZM75.632 49.36C73.6804 49.36 71.9438 49.7626 70.4623 50.6126L71.4577 52.3474C72.5788 51.7041 73.9569 51.36 75.632 51.36V49.36ZM70.4623 50.6126C68.983 51.4614 67.8545 52.6789 67.0868 54.2383L68.8812 55.1217C69.4788 53.9078 70.3343 52.9919 71.4577 52.3474L70.4623 50.6126ZM67.0896 54.2328C66.3226 55.7667 65.96 57.5591 65.96 59.576H67.96C67.96 57.7955 68.28 56.324 68.8784 55.1272L67.0896 54.2328ZM65.96 59.576C65.96 61.4948 66.2648 63.2377 66.8985 64.7866L68.7495 64.0294C68.2312 62.7623 67.96 61.2839 67.96 59.576H65.96ZM66.9056 64.8036C67.5818 66.3734 68.6432 67.6202 70.0767 68.5192L71.1393 66.8248C70.0554 66.1451 69.2609 65.216 68.7424 64.0124L66.9056 64.8036ZM70.0871 68.5256C71.5523 69.4196 73.4047 69.824 75.568 69.824V67.824C73.6353 67.824 72.181 67.4604 71.1289 66.8184L70.0871 68.5256ZM75.568 69.824C76.27 69.824 76.8962 69.8021 77.443 69.7565L77.277 67.7635C76.7998 67.8032 76.2313 67.824 75.568 67.824V69.824ZM77.4791 69.7529C78.0326 69.6865 78.5389 69.608 78.9961 69.5166L78.6039 67.5554C78.2078 67.6346 77.7541 67.7055 77.2409 67.7671L77.4791 69.7529ZM78.9871 69.5183C79.4436 69.4314 79.8696 69.344 80.2649 69.2562L79.8311 67.3038C79.4584 67.3866 79.0524 67.4699 78.6129 67.5537L78.9871 69.5183ZM81.048 68.28V61.496H79.048V68.28H81.048ZM80.048 60.496H75.024V62.496H80.048V60.496ZM76.024 61.496V58.936H74.024V61.496H76.024ZM97.0253 53.592L96.9084 54.5851L96.939 54.5888L96.9698 54.5905L97.0253 53.592ZM98.0173 53.72L99.0082 53.8546L99.1309 52.9507L98.2421 52.7456L98.0173 53.72ZM97.6653 56.312L97.4404 57.2864L98.5086 57.5329L98.6562 56.4466L97.6653 56.312ZM96.7373 56.152L96.6051 57.1433L96.6132 57.1443L96.7373 56.152ZM93.9213 56.504L94.3424 57.411L94.3424 57.411L93.9213 56.504ZM92.3213 57.688L93.0439 58.3792L93.0512 58.3716L93.0584 58.3637L92.3213 57.688ZM91.2013 59.48L90.2708 59.1135L90.266 59.1258L90.2615 59.1383L91.2013 59.48ZM90.8173 71V72H91.8173V71H90.8173ZM88.0013 71H87.0013V72H88.0013V71ZM88.0013 53.848V52.848H87.0013V53.848H88.0013ZM90.3053 53.848L91.3001 53.7465L91.2084 52.848H90.3053V53.848ZM90.6253 56.984L89.6304 57.0855L89.7221 57.984H90.6253V56.984ZM90.7533 56.984V57.984H91.336L91.6233 57.477L90.7533 56.984ZM92.0653 55.256L92.7724 55.9631L92.7796 55.9559L92.7866 55.9485L92.0653 55.256ZM93.8253 54.008L94.2368 54.9194L94.2489 54.9139L94.2608 54.9082L93.8253 54.008ZM96.0013 54.528C96.2772 54.528 96.5792 54.5464 96.9084 54.5851L97.1421 52.5988C96.7459 52.5522 96.3653 52.528 96.0013 52.528V54.528ZM96.9698 54.5905C97.3152 54.6096 97.5862 54.6468 97.7924 54.6944L98.2421 52.7456C97.8936 52.6652 97.5034 52.617 97.0807 52.5935L96.9698 54.5905ZM97.0263 53.5854L96.6743 56.1774L98.6562 56.4466L99.0082 53.8546L97.0263 53.5854ZM97.8901 55.3376C97.5735 55.2645 97.2298 55.2058 96.8613 55.1597L96.6132 57.1443C96.9274 57.1835 97.2023 57.2315 97.4404 57.2864L97.8901 55.3376ZM96.8694 55.1608C96.5091 55.1127 96.1555 55.088 95.8093 55.088V57.088C96.0603 57.088 96.3254 57.1059 96.6051 57.1432L96.8694 55.1608ZM95.8093 55.088C95.0031 55.088 94.23 55.2581 93.5001 55.597L94.3424 57.411C94.8072 57.1952 95.2927 57.088 95.8093 57.088V55.088ZM93.5001 55.597C92.7768 55.9328 92.1376 56.4085 91.5841 57.0123L93.0584 58.3637C93.4436 57.9435 93.8711 57.6298 94.3424 57.411L93.5001 55.597ZM91.5986 56.9968C91.0299 57.5913 90.5903 58.3026 90.2708 59.1135L92.1317 59.8465C92.3669 59.2494 92.6739 58.766 93.0439 58.3792L91.5986 56.9968ZM90.2615 59.1383C89.9596 59.9685 89.8173 60.8759 89.8173 61.848H91.8173C91.8173 61.0707 91.9309 60.3995 92.141 59.8217L90.2615 59.1383ZM89.8173 61.848V71H91.8173V61.848H89.8173ZM90.8173 70H88.0013V72H90.8173V70ZM89.0013 71V53.848H87.0013V71H89.0013ZM88.0013 54.848H90.3053V52.848H88.0013V54.848ZM89.3104 53.9495L89.6304 57.0855L91.6201 56.8825L91.3001 53.7465L89.3104 53.9495ZM90.6253 57.984H90.7533V55.984H90.6253V57.984ZM91.6233 57.477C91.9422 56.9141 92.3251 56.4104 92.7724 55.9631L91.3581 54.5489C90.7814 55.1256 90.2896 55.7739 89.8832 56.491L91.6233 57.477ZM92.7866 55.9485C93.212 55.5055 93.694 55.1645 94.2368 54.9194L93.4137 53.0966C92.6338 53.4488 91.9425 53.9399 91.3439 54.5635L92.7866 55.9485ZM94.2608 54.9082C94.7764 54.6587 95.3513 54.528 96.0013 54.528V52.528C95.0725 52.528 94.1968 52.7173 93.3897 53.1078L94.2608 54.9082ZM115.556 53.848H116.556V52.848H115.556V53.848ZM115.556 71V72H116.556V71H115.556ZM113.252 71L112.268 71.1801L112.418 72H113.252V71ZM112.836 68.728L113.82 68.5479L113.67 67.728H112.836V68.728ZM112.708 68.728V67.728H112.145L111.853 68.209L112.708 68.728ZM111.3 70.2L110.745 69.3679L110.745 69.3679L111.3 70.2ZM109.412 71.032L109.169 70.0619L109.155 70.0654L109.141 70.0693L109.412 71.032ZM103.812 70.68L103.373 71.5786L103.386 71.5846L103.398 71.5904L103.812 70.68ZM101.732 68.632L100.842 69.0875L100.842 69.0875L101.732 68.632ZM101.028 53.848V52.848H100.028V53.848H101.028ZM103.876 53.848H104.876V52.848H103.876V53.848ZM104.804 67.96L105.545 67.2885L105.545 67.2885L104.804 67.96ZM110.692 68.28L111.235 69.1196L111.241 69.1157L110.692 68.28ZM112.26 66.168L111.313 65.8453L111.309 65.8584L112.26 66.168ZM112.74 53.848V52.848H111.74V53.848H112.74ZM114.556 53.848V71H116.556V53.848H114.556ZM115.556 70H113.252V72H115.556V70ZM114.236 70.8199L113.82 68.5479L111.852 68.9081L112.268 71.1801L114.236 70.8199ZM112.836 67.728H112.708V69.728H112.836V67.728ZM111.853 68.209C111.566 68.6825 111.198 69.0659 110.745 69.3679L111.855 71.0321C112.554 70.5661 113.125 69.9681 113.563 69.247L111.853 68.209ZM110.745 69.3679C110.266 69.6873 109.743 69.9185 109.169 70.0619L109.655 72.0021C110.447 71.8041 111.182 71.4807 111.855 71.0321L110.745 69.3679ZM109.141 70.0693C108.551 70.2353 107.928 70.32 107.268 70.32V72.32C108.101 72.32 108.907 72.2127 109.683 71.9947L109.141 70.0693ZM107.268 70.32C106.001 70.32 105 70.1214 104.226 69.7696L103.398 71.5904C104.502 72.092 105.804 72.32 107.268 72.32V70.32ZM104.251 69.7814C103.53 69.4294 102.994 68.9032 102.622 68.1765L100.842 69.0875C101.409 70.1955 102.259 71.0346 103.373 71.5786L104.251 69.7814ZM102.622 68.1765C102.248 67.4458 102.028 66.433 102.028 65.08H100.028C100.028 66.6284 100.277 67.9836 100.842 69.0875L102.622 68.1765ZM102.028 65.08V53.848H100.028V65.08H102.028ZM101.028 54.848H103.876V52.848H101.028V54.848ZM102.876 53.848V64.888H104.876V53.848H102.876ZM102.876 64.888C102.876 66.3845 103.213 67.6935 104.063 68.6315L105.545 67.2885C105.158 66.8612 104.876 66.1222 104.876 64.888H102.876ZM104.063 68.6315C104.939 69.5981 106.22 69.984 107.684 69.984V67.984C106.545 67.984 105.906 67.6873 105.545 67.2885L104.063 68.6315ZM107.684 69.984C109.07 69.984 110.288 69.7326 111.235 69.1196L110.149 67.4404C109.646 67.766 108.858 67.984 107.684 67.984V69.984ZM111.241 69.1157C112.193 68.4901 112.848 67.5924 113.211 66.4776L111.309 65.8584C111.075 66.5783 110.684 67.0886 110.143 67.4443L111.241 69.1157ZM113.207 66.4907C113.572 65.42 113.74 64.1741 113.74 62.776H111.74C111.74 64.0232 111.588 65.0387 111.313 65.8453L113.207 66.4907ZM113.74 62.776V53.848H111.74V62.776H113.74ZM112.74 54.848H115.556V52.848H112.74V54.848ZM133.897 55.032L133.205 55.7537L133.213 55.7611L133.897 55.032ZM135.465 71V72H136.465V71H135.465ZM132.681 71H131.681V72H132.681V71ZM131.753 56.92L132.494 56.2485L132.494 56.2485L131.753 56.92ZM124.905 57.496L125.732 58.0583L125.732 58.0583L124.905 57.496ZM123.817 71V72H124.817V71H123.817ZM121.001 71H120.001V72H121.001V71ZM121.001 53.848V52.848H120.001V53.848H121.001ZM123.273 53.848L124.258 53.6727L124.111 52.848H123.273V53.848ZM123.689 56.184L122.705 56.3593L122.852 57.184H123.689V56.184ZM123.849 56.184V57.184H124.395L124.69 56.7248L123.849 56.184ZM125.257 54.712L125.826 55.5342L125.833 55.5298L125.257 54.712ZM129.257 54.528C131.155 54.528 132.411 54.9922 133.205 55.7537L134.589 54.3103C133.293 53.0665 131.456 52.528 129.257 52.528V54.528ZM133.213 55.7611C133.969 56.4712 134.465 57.7405 134.465 59.832H136.465C136.465 57.4861 135.916 55.5555 134.582 54.3029L133.213 55.7611ZM134.465 59.832V71H136.465V59.832H134.465ZM135.465 70H132.681V72H135.465V70ZM133.681 71V60.024H131.681V71H133.681ZM133.681 60.024C133.681 58.5111 133.347 57.1889 132.494 56.2485L131.012 57.5915C131.397 58.0164 131.681 58.7636 131.681 60.024H133.681ZM132.494 56.2485C131.616 55.2788 130.321 54.896 128.841 54.896V56.896C130.007 56.896 130.654 57.1958 131.012 57.5915L132.494 56.2485ZM128.841 54.896C126.778 54.896 125.067 55.4797 124.078 56.9337L125.732 58.0583C126.194 57.3789 127.108 56.896 128.841 56.896V54.896ZM124.078 56.9337C123.194 58.2348 122.817 60.0012 122.817 62.104H124.817C124.817 60.1961 125.166 58.8906 125.732 58.0583L124.078 56.9337ZM122.817 62.104V71H124.817V62.104H122.817ZM123.817 70H121.001V72H123.817V70ZM122.001 71V53.848H120.001V71H122.001ZM121.001 54.848H123.273V52.848H121.001V54.848ZM122.289 54.0233L122.705 56.3593L124.674 56.0087L124.258 53.6727L122.289 54.0233ZM123.689 57.184H123.849V55.184H123.689V57.184ZM124.69 56.7248C125.007 56.2323 125.386 55.8393 125.826 55.5342L124.688 53.8898C124.019 54.3527 123.459 54.941 123.008 55.6432L124.69 56.7248ZM125.833 55.5298C126.315 55.1901 126.842 54.9402 127.416 54.7787L126.875 52.8533C126.084 53.0758 125.351 53.4232 124.682 53.8942L125.833 55.5298ZM127.416 54.7787C128.009 54.612 128.621 54.528 129.257 54.528V52.528C128.442 52.528 127.647 52.636 126.875 52.8533L127.416 54.7787Z" fill="#032615" mask="url(#path-1-outside-1_99_2)"/>
<path fill-rule="evenodd" clip-rule="evenodd" d="M41.8882 54.3862C43.1606 58.9303 42.0947 63.8719 39.058 67.3898H19.9398C16.9031 63.8719 15.8372 58.9303 17.1096 54.3862H29.2578C29.4341 52.0796 29.5983 49.8931 29.7373 47.823C28.6198 46.935 29.5587 46.2399 27.6219 45.4225C18.2935 45.6916 20.2031 35.7297 10.3236 38.5513C15.9331 34.5185 27.3179 37.1545 28.567 45.0221L23.988 41.408L25.5963 43.0334L29.8363 46.2904C30.039 43.0355 30.166 40.0818 30.1574 37.4126C28.3143 37.1646 29.1793 34.4184 25.9543 33.0569C10.1792 33.5124 16.7295 20.3121 0.0229492 25.084C9.50904 18.2638 25.4394 19.076 27.5521 32.3802L19.809 26.2682C22.7086 29.2592 26.6901 31.968 30.1015 34.8392C29.2085 13.7561 9.11221 21.2476 14.54 0C15.7402 0.75434 19.3908 1.48063 20.1087 2.91657C20.4275 3.55419 21.7193 5.8612 22.6209 14.9988C22.8449 13.513 23.2367 8.05633 21.34 3.24768C28.3554 7.96871 34.3004 22.6094 31.5875 37.868C35.2994 34.9358 38.4923 32.704 41.7942 29.3666L34.0507 35.4786C36.1637 22.1747 52.0937 21.3626 61.5802 28.1828C44.8736 23.4105 51.4236 36.6108 35.6489 36.1557C32.3939 37.5296 33.2524 39.6932 31.5016 40.5016C31.4178 44.3537 31.5106 47.9598 31.5797 50.9183L35.8054 47.6727L37.4136 46.0469L32.8346 49.6614C34.0841 41.7938 43.5046 41.3134 49.1141 45.3466C39.2346 42.5246 43.1081 50.3309 33.7797 50.0618C31.8189 50.8892 32.7539 51.6931 31.6146 52.4997C31.6278 53.1761 31.6375 53.8068 31.6399 54.3862H41.8882Z" fill="#032615"/>
<path fill-rule="evenodd" clip-rule="evenodd" d="M16.3572 67.9283H42.6407V68.8808H41.0654C41.131 69.5153 40.0971 70.1425 38.0962 70.6246H21.1691C19.1687 70.1425 18.1343 69.5153 18.2 68.8808H16.3572V67.9283Z" fill="#032615"/>
</svg>
