<svg xmlns="http://www.w3.org/2000/svg" width="139" height="90" fill="none" xmlns:v="https://vecta.io/nano"><mask id="A" maskUnits="userSpaceOnUse" x="62" y="46" width="75" height="27" fill="#000"><path fill="#fff" d="M62 46h75v27H62z"/><path d="M75.024 58.936h7.904v11.2c-1.237.405-2.485.704-3.744.896s-2.688.288-4.288.288c-2.368 0-4.363-.469-5.984-1.408-1.621-.96-2.859-2.315-3.712-4.064-.832-1.771-1.248-3.861-1.248-6.272 0-2.389.469-4.459 1.408-6.208s2.283-3.104 4.032-4.064c1.771-.981 3.904-1.472 6.4-1.472 1.28 0 2.485.117 3.616.352 1.152.235 2.219.565 3.2.992l-1.088 2.496c-.811-.363-1.728-.672-2.752-.928a12.63 12.63 0 0 0-3.136-.384c-1.813 0-3.371.373-4.672 1.12s-2.293 1.813-2.976 3.2c-.683 1.365-1.024 2.997-1.024 4.896 0 1.813.288 3.424.864 4.832.597 1.387 1.525 2.475 2.784 3.264 1.259.768 2.912 1.152 4.96 1.152l1.792-.064 1.44-.224 1.248-.256v-6.784h-5.024v-2.56zm20.977-5.408a8.78 8.78 0 0 1 1.024.064c.384.021.715.064.992.128l-.352 2.592c-.277-.064-.587-.117-.928-.16a7.02 7.02 0 0 0-.928-.064 4.43 4.43 0 0 0-1.888.416c-.597.277-1.131.672-1.6 1.184-.469.491-.843 1.088-1.12 1.792-.256.704-.384 1.493-.384 2.368V71h-2.816V53.848h2.304l.32 3.136h.128c.363-.64.8-1.216 1.312-1.728.512-.533 1.099-.949 1.76-1.248.661-.32 1.387-.48 2.176-.48zm19.555.32V71h-2.304l-.416-2.272h-.128c-.363.597-.832 1.088-1.408 1.472a6 6 0 0 1-1.888.832c-.683.192-1.397.288-2.144.288-1.365 0-2.517-.213-3.456-.64a4.5 4.5 0 0 1-2.08-2.048c-.469-.917-.704-2.101-.704-3.552V53.848h2.848v11.04c0 1.365.309 2.389.928 3.072s1.579 1.024 2.88 1.024c1.28 0 2.283-.235 3.008-.704.747-.491 1.269-1.195 1.568-2.112.32-.939.48-2.069.48-3.392v-8.928h2.816zm13.701-.32c2.048 0 3.595.501 4.64 1.504 1.046.981 1.568 2.581 1.568 4.8V71h-2.784V60.024c0-1.387-.309-2.421-.928-3.104s-1.589-1.024-2.912-1.024c-1.898 0-3.21.533-3.936 1.6s-1.088 2.603-1.088 4.608V71h-2.816V53.848h2.272l.416 2.336h.16c.384-.597.854-1.088 1.408-1.472.576-.405 1.206-.704 1.888-.896s1.387-.288 2.112-.288z"/></mask><path d="M75.024 58.936h7.904v11.2c-1.237.405-2.485.704-3.744.896s-2.688.288-4.288.288c-2.368 0-4.363-.469-5.984-1.408-1.621-.96-2.859-2.315-3.712-4.064-.832-1.771-1.248-3.861-1.248-6.272 0-2.389.469-4.459 1.408-6.208s2.283-3.104 4.032-4.064c1.771-.981 3.904-1.472 6.4-1.472 1.28 0 2.485.117 3.616.352 1.152.235 2.219.565 3.2.992l-1.088 2.496c-.811-.363-1.728-.672-2.752-.928a12.63 12.63 0 0 0-3.136-.384c-1.813 0-3.371.373-4.672 1.12s-2.293 1.813-2.976 3.2c-.683 1.365-1.024 2.997-1.024 4.896 0 1.813.288 3.424.864 4.832.597 1.387 1.525 2.475 2.784 3.264 1.259.768 2.912 1.152 4.96 1.152l1.792-.064 1.44-.224 1.248-.256v-6.784h-5.024v-2.56zm20.977-5.408a8.78 8.78 0 0 1 1.024.064c.384.021.715.064.992.128l-.352 2.592c-.277-.064-.587-.117-.928-.16a7.02 7.02 0 0 0-.928-.064 4.43 4.43 0 0 0-1.888.416c-.597.277-1.131.672-1.6 1.184-.469.491-.843 1.088-1.12 1.792-.256.704-.384 1.493-.384 2.368V71h-2.816V53.848h2.304l.32 3.136h.128c.363-.64.8-1.216 1.312-1.728.512-.533 1.099-.949 1.76-1.248.661-.32 1.387-.48 2.176-.48zm19.555.32V71h-2.304l-.416-2.272h-.128c-.363.597-.832 1.088-1.408 1.472a6 6 0 0 1-1.888.832c-.683.192-1.397.288-2.144.288-1.365 0-2.517-.213-3.456-.64a4.5 4.5 0 0 1-2.08-2.048c-.469-.917-.704-2.101-.704-3.552V53.848h2.848v11.04c0 1.365.309 2.389.928 3.072s1.579 1.024 2.88 1.024c1.28 0 2.283-.235 3.008-.704.747-.491 1.269-1.195 1.568-2.112.32-.939.48-2.069.48-3.392v-8.928h2.816zm13.701-.32c2.048 0 3.595.501 4.64 1.504 1.046.981 1.568 2.581 1.568 4.8V71h-2.784V60.024c0-1.387-.309-2.421-.928-3.104s-1.589-1.024-2.912-1.024c-1.898 0-3.21.533-3.936 1.6s-1.088 2.603-1.088 4.608V71h-2.816V53.848h2.272l.416 2.336h.16c.384-.597.854-1.088 1.408-1.472.576-.405 1.206-.704 1.888-.896s1.387-.288 2.112-.288z" fill="#032615"/><path d="M75.024 58.936v-1h-1v1h1zm7.904 0h1v-1h-1v1zm0 11.2l.311.95.689-.226v-.725h-1zm-3.744.896l-.151-.989h0l.151.989zm-10.272-1.12l-.51.86.008.005.501-.865zM65.2 65.848l-.905.425.003.007.003.007.899-.438zm.16-12.48l.881.473h0l-.881-.473zm4.032-4.064l.481.877.004-.002-.485-.875zm10.016-1.12l-.203.979.004.001.2-.98zm3.2.992l.917.4.4-.918-.918-.399-.399.917zm-1.088 2.496l-.408.913.922.412.403-.926-.917-.4zm-2.752-.928l-.247.969.005.001.243-.97zm-7.808.736l.498.867h0l-.498-.867zm-2.976 3.2l.894.447.003-.006-.897-.442zm-.16 9.728l-.925.379.003.009.004.008.918-.396zm2.784 3.264l-.531.847.01.006.521-.854zm6.752 1.088l.083.996.018-.002.018-.002-.119-.993zm1.44-.224l-.187-.982-.009.002.196.981zm1.248-.256l.217.976.783-.174v-.802h-1zm0-6.784h1v-1h-1v1zm-5.024 0h-1v1h1v-1zm0-1.56h7.904v-2h-7.904v2zm6.904-1v11.2h2v-11.2h-2zm.689 10.25a22.29 22.29 0 0 1-3.584.858l.302 1.977c1.314-.201 2.616-.512 3.904-.934l-.623-1.901zm-3.584.858c-1.198.183-2.575.277-4.137.277v2c1.638 0 3.12-.098 4.439-.299l-.302-1.977zm-4.137.277c-2.238 0-4.049-.443-5.483-1.273l-1.002 1.731c1.809 1.047 3.987 1.543 6.485 1.543v-2zm-5.475-1.268c-1.447-.857-2.552-2.062-3.323-3.642l-1.798.877c.936 1.919 2.306 3.423 4.101 4.486l1.019-1.721zm-3.316-3.629c-.757-1.61-1.153-3.55-1.153-5.847h-2c0 2.524.436 4.766 1.343 6.697l1.81-.851zm-1.153-5.847c0-2.258.443-4.158 1.289-5.735l-1.762-.946c-1.031 1.921-1.527 4.16-1.527 6.681h2zm1.289-5.735c.847-1.578 2.051-2.793 3.632-3.66l-.962-1.753c-1.918 1.053-3.401 2.547-4.432 4.468l1.762.946zm3.635-3.662c1.592-.882 3.55-1.347 5.915-1.347v-2c-2.627 0-4.935.517-6.885 1.597l.969 1.749zm5.915-1.347c1.219 0 2.356.112 3.413.331l.406-1.958c-1.204-.25-2.478-.373-3.819-.373v2zm3.416.332a15.03 15.03 0 0 1 3.001.929l.797-1.834c-1.051-.457-2.185-.807-3.399-1.055l-.399 1.96zm2.483-.387l-1.088 2.496 1.833.799 1.088-2.496-1.833-.799zm.237 1.983c-.873-.391-1.847-.718-2.918-.985l-.485 1.94a15.62 15.62 0 0 1 2.586.871l.817-1.826zm-2.913-.984c-1.088-.278-2.216-.415-3.383-.415v2a11.63 11.63 0 0 1 2.889.353l.495-1.938zm-3.383-.415c-1.952 0-3.688.403-5.17 1.253l.995 1.735c1.121-.643 2.499-.987 4.174-.987v-2zm-5.17 1.253c-1.479.849-2.608 2.066-3.376 3.626l1.794.883c.598-1.214 1.453-2.13 2.576-2.774l-.995-1.735zm-3.373 3.62c-.767 1.534-1.13 3.326-1.13 5.343h2c0-1.781.32-3.252.918-4.449l-1.789-.894zm-1.13 5.343c0 1.919.305 3.662.939 5.211l1.851-.757c-.518-1.267-.79-2.745-.79-4.453h-2zm.946 5.228c.676 1.57 1.738 2.817 3.171 3.716l1.063-1.694c-1.084-.68-1.878-1.609-2.397-2.812l-1.837.791zm3.182 3.722c1.465.894 3.318 1.298 5.481 1.298v-2c-1.933 0-3.387-.364-4.439-1.006l-1.042 1.707zm5.481 1.298l1.875-.067-.166-1.993-1.709.061v2zm1.911-.071l1.517-.236-.392-1.961-1.363.212.238 1.986zm1.508-.235l1.278-.262-.434-1.952-1.218.25.374 1.965zm2.061-1.238v-6.784h-2v6.784h2zm-1-7.784h-5.024v2h5.024v-2zm-4.024 1v-2.56h-2v2.56h2zm21.001-7.904l-.117.993.031.004.031.002.055-.998zm.992.128l.991.135.123-.904-.889-.205-.225.974zm-.352 2.592l-.225.974 1.068.246.148-1.086-.991-.135zm-.928-.16l-.132.991.008.001.124-.992zm-2.816.352l.421.907h0l-.421-.907zm-1.6 1.184l.723.691.007-.008.007-.008-.737-.676zm-1.12 1.792l-.931-.366-.005.012-.005.013.94.342zM90.817 71v1h1v-1h-1zm-2.816 0h-1v1h1v-1zm0-17.152v-1h-1v1h1zm2.304 0l.995-.102-.092-.898h-.903v1zm.32 3.136l-.995.102.092.898h.903v-1zm.128 0v1h.583l.287-.507-.87-.493zm1.312-1.728l.707.707.007-.007.007-.007-.721-.693zm1.76-1.248l.412.911.012-.006.012-.006-.436-.9zm2.176.52c.276 0 .578.018.907.057l.234-1.986c-.396-.047-.777-.071-1.141-.071v2zm.969.063c.345.019.616.056.823.104l.45-1.949c-.348-.08-.739-.129-1.161-.152l-.111 1.997zm.056-1.005l-.352 2.592 1.982.269.352-2.592-1.982-.269zm.864 1.752c-.317-.073-.66-.132-1.029-.178l-.248 1.985.827.142.45-1.949zm-1.021-.177a8.01 8.01 0 0 0-1.06-.073v2c.251 0 .516.018.796.055l.264-1.982zm-1.06-.073a5.43 5.43 0 0 0-2.309.509l.842 1.814a3.43 3.43 0 0 1 1.467-.323v-2zm-2.309.509c-.723.336-1.362.811-1.916 1.415l1.474 1.351c.385-.42.813-.734 1.284-.953l-.842-1.814zm-1.901 1.4c-.569.594-1.008 1.306-1.328 2.117l1.861.733c.235-.597.542-1.081.912-1.467l-1.445-1.382zm-1.337 2.142c-.302.83-.444 1.738-.444 2.71h2c0-.777.114-1.448.324-2.026l-1.88-.683zm-.444 2.71V71h2v-9.152h-2zm1 8.152h-2.816v2h2.816v-2zm-1.816 1V53.848h-2V71h2zm-1-16.152h2.304v-2h-2.304v2zm1.309-.898l.32 3.136 1.99-.203-.32-3.136-1.99.203zm1.315 4.035h.128v-2h-.128v2zm.998-.507c.319-.563.702-1.067 1.149-1.514l-1.414-1.414a9.03 9.03 0 0 0-1.475 1.942l1.74.986zm1.163-1.528a4.64 4.64 0 0 1 1.45-1.029l-.823-1.823c-.78.352-1.471.843-2.07 1.467l1.443 1.385zm1.474-1.04a3.93 3.93 0 0 1 1.74-.38v-2c-.929 0-1.805.189-2.612.58l.871 1.8zm21.295-1.06h1v-1h-1v1zm0 17.152v1h1v-1h-1zm-2.304 0l-.984.18.15.82h.834v-1zm-.416-2.272l.984-.18-.15-.82h-.834v1zm-.128 0v-1h-.563l-.292.481.855.519zM111.3 70.2l-.555-.832h0l.555.832zm-1.888.832l-.243-.97-.014.004-.014.004.271.963zm-5.6-.352l-.439.899.013.006.012.006.414-.91zm-2.08-2.048l-.89.456h0l.89-.456zm-.704-14.784v-1h-1v1h1zm2.848 0h1v-1h-1v1zm.928 14.112l.741-.671h0l-.741.671zm5.888.32l.543.84.006-.004-.549-.836zm1.568-2.112l-.947-.323-.004.013.951.31zm.48-12.32v-1h-1v1h1zm1.816 0V71h2V53.848h-2zm1 16.152h-2.304v2h2.304v-2zm-1.32.82l-.416-2.272-1.968.36.416 2.272 1.968-.36zm-1.4-3.092h-.128v2h.128v-2zm-.983.481c-.287.474-.655.857-1.108 1.159l1.11 1.664c.699-.466 1.27-1.064 1.708-1.785l-1.71-1.038zm-1.108 1.159c-.479.319-1.002.551-1.576.694l.486 1.94a7 7 0 0 0 2.2-.97l-1.11-1.664zm-1.604.701c-.59.166-1.213.251-1.873.251v2a8.89 8.89 0 0 0 2.415-.325l-.542-1.925zm-1.873.251c-1.267 0-2.268-.199-3.042-.55l-.828 1.821c1.104.502 2.406.73 3.87.73v-2zm-3.017-.539a3.5 3.5 0 0 1-1.629-1.605l-1.78.911c.567 1.108 1.417 1.947 2.531 2.491l.878-1.797zm-1.629-1.605c-.374-.731-.594-1.743-.594-3.097h-2c0 1.548.249 2.904.814 4.008l1.78-.911zm-.594-3.097V53.848h-2V65.08h2zm-1-10.232h2.848v-2h-2.848v2zm1.848-1v11.04h2v-11.04h-2zm0 11.04c0 1.496.337 2.805 1.187 3.743l1.482-1.343c-.387-.427-.669-1.166-.669-2.4h-2zm1.187 3.743c.876.967 2.157 1.352 3.621 1.352v-2c-1.139 0-1.778-.297-2.139-.695l-1.482 1.343zm3.621 1.352c1.386 0 2.604-.251 3.551-.864l-1.086-1.679c-.503.326-1.291.544-2.465.544v2zm3.557-.868c.952-.626 1.607-1.523 1.97-2.638l-1.902-.619c-.234.72-.625 1.23-1.166 1.586l1.098 1.671zm1.966-2.625c.365-1.071.533-2.317.533-3.715h-2c0 1.247-.152 2.263-.427 3.069l1.894.645zm.533-3.715v-8.928h-2v8.928h2zm-1-7.928h2.816v-2h-2.816v2zm21.157.184l-.692.722.008.007.684-.729zM135.465 71v1h1v-1h-1zm-2.784 0h-1v1h1v-1zm-.928-14.08l.741-.672h0l-.741.672zm-6.848.576l.827.562h0l-.827-.562zM123.817 71v1h1v-1h-1zm-2.816 0h-1v1h1v-1zm0-17.152v-1h-1v1h1zm2.272 0l.985-.175-.147-.825h-.838v1zm.416 2.336l-.984.175.147.825h.837v-1zm.16 0v1h.546l.295-.459-.841-.541zm1.408-1.472l.569.822.007-.004-.576-.818zm4-.184c1.898 0 3.154.464 3.948 1.226l1.384-1.443c-1.296-1.244-3.133-1.782-5.332-1.782v2zm3.956 1.233c.756.71 1.252 1.979 1.252 4.071h2c0-2.346-.549-4.276-1.883-5.529l-1.369 1.458zm1.252 4.071V71h2V59.832h-2zm1 10.168h-2.784v2h2.784v-2zm-1.784 1V60.024h-2V71h2zm0-10.976c0-1.513-.334-2.835-1.187-3.776l-1.482 1.343c.385.425.669 1.172.669 2.432h2zm-1.187-3.776c-.878-.97-2.173-1.352-3.653-1.352v2c1.166 0 1.813.3 2.171.696l1.482-1.343zm-3.653-1.352c-2.063 0-3.774.584-4.763 2.038l1.654 1.125c.462-.679 1.376-1.162 3.109-1.162v-2zm-4.763 2.038c-.884 1.301-1.261 3.067-1.261 5.17h2c0-1.908.349-3.213.915-4.046l-1.654-1.125zm-1.261 5.17V71h2v-8.896h-2zm1 7.896h-2.816v2h2.816v-2zm-1.816 1V53.848h-2V71h2zm-1-16.152h2.272v-2h-2.272v2zm1.288-.825l.416 2.336 1.969-.351-.416-2.336-1.969.351zm1.4 3.161h.16v-2h-.16v2zm1.001-.459c.317-.492.696-.886 1.136-1.191l-1.138-1.644c-.669.463-1.229 1.051-1.68 1.753l1.682 1.082zm1.143-1.195c.482-.34 1.009-.59 1.583-.751l-.541-1.925a7.15 7.15 0 0 0-2.193 1.041l1.151 1.636zm1.583-.751a6.76 6.76 0 0 1 1.841-.251v-2c-.815 0-1.61.108-2.382.325l.541 1.925z" fill="#032615" mask="url(#A)"/><path d="M41.888 54.386c1.272 4.544.207 9.486-2.83 13.004H19.94c-3.037-3.518-4.103-8.459-2.83-13.004h12.148l.48-6.563c-1.117-.888-.179-1.583-2.115-2.401-9.328.269-7.419-9.693-17.298-6.871 5.609-4.033 16.994-1.397 18.243 6.471l-4.579-3.614 1.608 1.625 4.24 3.257c.203-3.255.33-6.209.321-8.878-1.843-.248-.978-2.994-4.203-4.356-15.775.456-9.225-12.745-25.931-7.973 9.486-6.82 25.416-6.008 27.529 7.296l-7.743-6.112c2.9 2.991 6.881 5.7 10.293 8.571C29.209 13.756 9.112 21.248 14.54 0c1.2.754 4.851 1.481 5.569 2.917.319.638 1.611 2.945 2.512 12.082.224-1.486.616-6.942-1.281-11.751 7.015 4.721 12.96 19.362 10.247 34.62 3.712-2.932 6.905-5.164 10.207-8.501l-7.743 6.112c2.113-13.304 18.043-14.116 27.53-7.296-16.707-4.772-10.157 8.428-25.931 7.973-3.255 1.374-2.396 3.537-4.147 4.346-.084 3.852.009 7.458.078 10.417l4.226-3.246 1.608-1.626-4.579 3.614c1.249-7.868 10.67-8.348 16.279-4.315-9.879-2.822-6.006 4.984-15.334 4.715-1.961.827-1.026 1.631-2.165 2.438l.025 1.887h10.248zM16.357 67.928h26.284v.953h-1.575c.066.635-.968 1.262-2.969 1.744H21.169c-2-.482-3.035-1.109-2.969-1.744h-1.843v-.953z" fill="#032615" fill-rule="evenodd"/></svg>