<svg xmlns="http://www.w3.org/2000/svg" xmlns:xlink="http://www.w3.org/1999/xlink" xml:space="preserve" style="shape-rendering:geometricPrecision;text-rendering:geometricPrecision;image-rendering:optimizeQuality;" viewBox="0 0 15.8538 25.489250000000002" x="0px" y="0px" fill-rule="evenodd" clip-rule="evenodd"><defs><style type="text/css">
   
    .fil0 {fill:black}
   
  </style></defs><g><path class="fil0" d="M10.7822 15.7029c0.3277,1.312 0.0532,2.7388 -0.7289,3.7545l-4.9238 0c-0.7821,-1.0157 -1.0566,-2.4425 -0.7289,-3.7545l3.1287 0c0.0454,-0.666 0.0877,-1.2973 0.1235,-1.895 -0.2878,-0.2564 -0.046,-0.4571 -0.5448,-0.6931 -2.4025,0.0777 -1.9107,-2.7986 -4.4551,-1.9839 1.4447,-1.1644 4.3768,-0.4033 4.6985,1.8683l-1.1793 -1.0435 0.4142 0.4693 1.092 0.9404c0.0522,-0.9398 0.0849,-1.7926 0.0827,-2.5633 -0.4747,-0.0716 -0.2519,-0.8645 -1.0825,-1.2576 -4.0628,0.1315 -2.3758,-3.6798 -6.6785,-2.302 2.4431,-1.9692 6.5459,-1.7347 7.09,2.1066l-1.9942 -1.7647c0.7468,0.8636 1.7722,1.6457 2.6508,2.4747 -0.23,-6.0873 -5.4057,-3.9243 -4.0078,-10.0591 0.3091,0.2178 1.2493,0.4275 1.4342,0.8421 0.0821,0.1841 0.4148,0.8502 0.647,3.4885 0.0577,-0.429 0.1586,-2.0045 -0.3299,-3.3929 1.8068,1.3631 3.3379,5.5903 2.6392,9.9959 0.956,-0.8466 1.7783,-1.491 2.6287,-2.4546l-1.9943 1.7647c0.5442,-3.8412 4.6469,-4.0757 7.0901,-2.1065 -4.3027,-1.3779 -2.6158,2.4334 -6.6785,2.302 -0.8383,0.3967 -0.6172,1.0214 -1.0681,1.2548 -0.0216,1.1122 0.0023,2.1534 0.0201,3.0076l1.0883 -0.9371 0.4142 -0.4694 -1.1793 1.0436c0.3218,-2.2716 2.748,-2.4103 4.1927,-1.2458 -2.5444,-0.8148 -1.5468,1.4391 -3.9493,1.3614 -0.505,0.2389 -0.2642,0.471 -0.5576,0.7039 0.0034,0.1953 0.0059,0.3774 0.0065,0.5447l2.6394 0z"/><path class="fil0" d="M4.2068 19.6129l6.7692 0 0 0.275 -0.4057 0c0.0169,0.1832 -0.2494,0.3643 -0.7647,0.5035l-4.3595 0c-0.5152,-0.1392 -0.7816,-0.3203 -0.7647,-0.5035l-0.4746 0 0 -0.275z"/></g><text x="0" y="35.391400000000004" fill="#000000" font-size="5px" font-weight="bold" font-family="'Helvetica Neue', Helvetica, Arial-Unicode, Arial, Sans-serif">Created by VANISHA</text><text x="0" y="40.391400000000004" fill="#000000" font-size="5px" font-weight="bold" font-family="'Helvetica Neue', Helvetica, Arial-Unicode, Arial, Sans-serif">from the Noun Project</text></svg>